<svg width="50" height="50" viewBox="0 0 50 50" fill="none" xmlns="http://www.w3.org/2000/svg">
  <rect width="50" height="50" rx="15" fill="#543BED"/>
  <path d="M24.6 13C24.9846 13 25.3534 13.1264 25.6253 13.3515C25.8972 13.5765 26.05 13.8817 26.05 14.2V26.9032L29.3748 24.1516C29.6483 23.933 30.0146 23.8121 30.3948 23.8148C30.775 23.8175 31.1386 23.9437 31.4075 24.1662C31.6763 24.3887 31.8288 24.6897 31.8321 25.0043C31.8354 25.319 31.6893 25.6221 31.4252 25.8484L25.6251 30.6484C25.3532 30.8734 24.9845 30.9997 24.6 30.9997C24.2155 30.9997 23.8468 30.8734 23.5748 30.6484L17.7749 25.8484C17.6364 25.7377 17.5259 25.6053 17.4499 25.4589C17.3739 25.3125 17.3339 25.155 17.3322 24.9957C17.3306 24.8363 17.3673 24.6783 17.4402 24.5309C17.5131 24.3834 17.6207 24.2494 17.7569 24.1367C17.893 24.0241 18.0549 23.935 18.2331 23.8746C18.4113 23.8143 18.6023 23.7839 18.7948 23.7853C18.9873 23.7867 19.1776 23.8198 19.3545 23.8827C19.5314 23.9456 19.6914 24.037 19.8251 24.1516L23.15 26.9032V14.2C23.15 13.8817 23.3028 13.5765 23.5747 13.3515C23.8466 13.1264 24.2154 13 24.6 13ZM14.45 31C14.8346 31 15.2034 31.1264 15.4753 31.3515C15.7472 31.5765 15.9 31.8817 15.9 32.2V34.6H33.3V32.2C33.3 31.8817 33.4528 31.5765 33.7247 31.3515C33.9966 31.1264 34.3654 31 34.75 31C35.1346 31 35.5034 31.1264 35.7753 31.3515C36.0472 31.5765 36.2 31.8817 36.2 32.2V34.6C36.2 35.2365 35.8945 35.847 35.3506 36.2971C34.8068 36.7471 34.0691 37 33.3 37H15.9C15.1309 37 14.3932 36.7471 13.8494 36.2971C13.3055 35.847 13 35.2365 13 34.6V32.2C13 31.8817 13.1528 31.5765 13.4247 31.3515C13.6966 31.1264 14.0654 31 14.45 31Z" fill="white"/>
</svg>