<svg width="50" height="50" viewBox="0 0 50 50" fill="none" xmlns="http://www.w3.org/2000/svg">
  <rect width="50" height="50" rx="15" fill="#5c64ec"/>
  <g clip-path="url(#clip0_210_919)">
  <path d="M35.6737 13H14.3342C11.9421 13 10 14.9779 10 17.4141V32.594C10 35.0301 11.9421 37.008 14.3342 37.008H35.6737C38.0658 37.008 40.0079 35.0301 40.0079 32.594V17.4141C40.0079 14.9779 38.0658 13 35.6737 13ZM35.6737 15.1065C35.8474 15.1065 36.0211 15.1307 36.1868 15.1709L27.1868 25.5749C26.6342 26.21 25.8368 26.5799 25.0079 26.5799C24.1789 26.5799 23.3816 26.2181 22.8289 25.5749L13.8211 15.1709C13.9868 15.1307 14.1605 15.1065 14.3342 15.1065H35.6737ZM37.9316 32.594C37.9316 33.8643 36.9211 34.8935 35.6737 34.8935H14.3342C13.0868 34.8935 12.0763 33.8643 12.0763 32.594V17.4141C12.0763 17.1085 12.1395 16.8111 12.2421 16.5377L21.2658 26.9658C22.2132 28.0593 23.5711 28.6864 25 28.6864C26.4289 28.6864 27.7868 28.0593 28.7342 26.9658L37.7579 16.5377C37.8684 16.803 37.9237 17.1005 37.9237 17.4141V32.594H37.9316Z" fill="white"/>
  </g>
  <defs>
  <clipPath id="clip0_210_919">
  <rect width="30" height="24" fill="white" transform="translate(10 13)"/>
  </clipPath>
  </defs>
</svg>