<svg width="62" height="62" viewBox="0 0 62 62" fill="none" xmlns="http://www.w3.org/2000/svg">
  <g clip-path="url(#clip0_20_332)">
  <path d="M62 31C62 13.879 48.121 0 31 0C13.879 0 0 13.879 0 31C0 46.4737 11.338 59.3013 26.1634 61.632V39.9723H18.2951V31.0175H26.1634V24.1832C26.1634 16.42 30.7897 12.1266 37.8694 12.1266C41.2691 12.1266 44.8089 12.74 44.8089 12.74V20.3629H40.9011C37.0458 20.3629 35.8542 22.7462 35.8542 25.1995V31.0175H44.4585L43.0916 39.9723H35.8717V61.632C50.697 59.3013 62.035 46.4737 62.035 31H62Z" fill="#597EFF"/>
  <path d="M43.0741 39.9548L44.441 31H35.8367V25.182C35.8367 22.7287 37.0458 20.3454 40.8836 20.3454H44.7914V12.7224C44.7914 12.7224 41.2516 12.1091 37.8519 12.1091C30.7722 12.1091 26.1459 16.4025 26.1459 24.1656V31H18.2776V39.9548H26.1459V61.6145C27.723 61.8598 29.3352 62 30.9825 62C32.6298 62 34.242 61.8773 35.8191 61.6145V39.9548H43.039H43.0741Z" fill="white"/>
  </g>
  <defs>
  <clipPath id="clip0_20_332">
  <rect width="62" height="62" fill="white"/>
  </clipPath>
  </defs>
 </svg>