<svg width="150" height="150" viewBox="0 0 150 150" fill="none" xmlns="http://www.w3.org/2000/svg">
<rect width="150" height="150" rx="15" fill="#543BED"/>
<path d="M111.309 33.3716C111.309 32.4879 110.958 31.6403 110.333 31.0154C109.708 30.3905 108.861 30.0394 107.977 30.0394H91.3158C82.9261 29.6215 74.7119 32.5412 68.4681 38.1606C62.2243 43.78 58.4585 51.6423 57.9934 60.0296V78.0236H41.3322C40.4485 78.0236 39.6009 78.3747 38.976 78.9996C38.3511 79.6246 38 80.4721 38 81.3559V98.6835C38 99.5673 38.3511 100.415 38.976 101.04C39.6009 101.665 40.4485 102.016 41.3322 102.016H57.9934V146.668C57.9934 147.552 58.3445 148.399 58.9694 149.024C59.5943 149.649 60.4419 150 61.3257 150H81.3191C82.2029 150 83.0504 149.649 83.6754 149.024C84.3003 148.399 84.6513 147.552 84.6513 146.668V102.016H102.112C102.853 102.026 103.577 101.79 104.168 101.343C104.76 100.897 105.185 100.266 105.378 99.5499L110.176 82.2223C110.309 81.7299 110.327 81.2137 110.228 80.7134C110.13 80.213 109.918 79.7419 109.609 79.3363C109.3 78.9308 108.902 78.6015 108.446 78.3739C107.99 78.1463 107.487 78.0265 106.977 78.0236H84.6513V60.0296C84.8171 58.3799 85.5918 56.8513 86.8241 55.7423C88.0564 54.6332 89.6579 54.0232 91.3158 54.0315H107.977C108.861 54.0315 109.708 53.6804 110.333 53.0555C110.958 52.4306 111.309 51.583 111.309 50.6993V33.3716Z" fill="white"/>
</svg>
