<svg width="150" height="150" viewBox="0 0 150 150" fill="none" xmlns="http://www.w3.org/2000/svg">
<rect width="150" height="150" rx="15" fill="#543BED"/>
<path d="M110.084 27.297C101.824 19.3674 90.393 15 77.8967 15C58.8081 15 47.0677 22.8247 40.5802 29.3884C32.5846 37.4774 28 48.2182 28 58.857C28 72.2149 33.5873 82.4675 42.9439 86.2817C43.572 86.5391 44.2041 86.6687 44.8238 86.6687C46.7977 86.6687 48.3617 85.377 48.9036 83.3054C49.2195 82.1168 49.9513 79.1845 50.2695 77.9116C50.9506 75.398 50.4003 74.1888 48.9148 72.4382C46.2087 69.2362 44.9485 65.4498 44.9485 60.5221C44.9485 45.885 55.8475 30.3289 76.0477 30.3289C92.0758 30.3289 102.032 39.4387 102.032 54.1027C102.032 63.3564 100.039 71.9261 96.4186 78.2344C93.9028 82.6177 89.4789 87.8427 82.6876 87.8427C79.7509 87.8427 77.1127 86.6363 75.4482 84.533C73.8757 82.5448 73.3573 79.9765 73.9899 77.2997C74.7043 74.2753 75.6786 71.1206 76.6215 68.0709C78.3411 62.5007 79.9667 57.2396 79.9667 53.0422C79.9667 45.8627 75.5529 41.0386 68.9845 41.0386C60.637 41.0386 54.0971 49.5169 54.0971 60.3404C54.0971 65.6486 55.5079 69.6189 56.1465 71.1433C55.0949 75.5988 48.845 102.088 47.6595 107.083C46.974 109.999 42.8447 133.03 49.6794 134.866C57.3585 136.929 64.2227 114.499 64.9214 111.964C65.4876 109.903 67.4688 102.108 68.6829 97.3171C72.39 100.888 78.3589 103.302 84.1668 103.302C95.1157 103.302 104.962 98.3748 111.893 89.4294C118.615 80.7528 122.317 68.6594 122.317 55.3787C122.316 44.9962 117.857 34.7605 110.084 27.297Z" fill="white"/>
</svg>
