<svg width="62" height="62" viewBox="0 0 62 62" fill="none" xmlns="http://www.w3.org/2000/svg">
  <g clip-path="url(#clip0_20_333)">
  <path d="M31 62C48.1208 62 62 48.1208 62 31C62 13.8792 48.1208 0 31 0C13.8792 0 0 13.8792 0 31C0 48.1208 13.8792 62 31 62Z" fill="#5c64ec"/>
  <path fill-rule="evenodd" clip-rule="evenodd" d="M21.9892 55.1631C24.5508 52.8785 26.3092 49.6246 27.1677 46.2877C27.5138 44.9723 28.9262 39.5861 28.9262 39.5861C29.84 41.3446 32.54 42.8262 35.3785 42.8262C43.88 42.8262 50 35.0169 50 25.2831C50 15.9646 42.3985 9 32.6231 9C20.4523 9 14 17.1692 14 26.0585C14 30.1846 16.2015 35.3354 19.7185 36.9692C20.2446 37.2323 20.5354 37.1077 20.66 36.5815C20.7431 36.18 21.2277 34.2831 21.4492 33.3831C21.5185 33.1062 21.4908 32.8431 21.2554 32.5662C20.0923 31.1538 19.1508 28.5508 19.1508 26.1415C19.1508 19.9246 23.8585 13.9015 31.8754 13.9015C38.7985 13.9015 43.6446 18.6092 43.6446 25.3662C43.6446 32.9954 39.7954 38.2846 34.7831 38.2846C32.0138 38.2846 29.9369 36 30.6154 33.1892C31.4185 29.8385 32.9554 26.2246 32.9554 23.8154C32.9554 21.6554 31.8062 19.8554 29.3831 19.8554C26.5446 19.8554 24.2877 22.7769 24.2877 26.7092C24.2877 29.2015 25.1185 30.8908 25.1185 30.8908C25.1185 30.8908 22.3215 42.7015 21.8092 44.9031C21.2415 47.34 21.4631 50.76 21.7123 52.9892L21.9615 55.1769L21.9892 55.1631Z" fill="white"/>
  </g>
  <defs>
  <clipPath id="clip0_20_333">
  <rect width="62" height="62" fill="white"/>
  </clipPath>
  </defs>
</svg>
