<svg width="50" height="50" viewBox="0 0 50 50" fill="none" xmlns="http://www.w3.org/2000/svg">
  <rect width="50" height="50" rx="15" fill="#543BED"/>
  <path d="M14.7999 13.5333C13.5475 13.5333 12.5332 14.5477 12.5332 15.8V20.3333C12.5332 21.5857 13.5475 22.6 14.7999 22.6H19.3332C20.5855 22.6 21.5999 21.5857 21.5999 20.3333V15.8C21.5999 14.5477 20.5855 13.5333 19.3332 13.5333H14.7999ZM30.6665 13.5333C29.4142 13.5333 28.3999 14.5477 28.3999 15.8V20.3333C28.3999 21.5857 29.4142 22.6 30.6665 22.6H35.1999C36.4522 22.6 37.4665 21.5857 37.4665 20.3333V15.8C37.4665 14.5477 36.4522 13.5333 35.1999 13.5333H30.6665ZM14.7999 15.8H19.3332V20.3333H14.7999V15.8ZM23.8665 15.8V18.0667H26.1332V15.8H23.8665ZM30.6665 15.8H35.1999V20.3333H30.6665V15.8ZM15.9332 16.9333V19.2H18.1999V16.9333H15.9332ZM31.7999 16.9333V19.2H34.0665V16.9333H31.7999ZM23.8665 20.3333V22.6H26.1332V20.3333H23.8665ZM14.7999 24.8667V27.1333H17.0665V24.8667H14.7999ZM19.3332 24.8667V27.1333H21.5999V24.8667H19.3332ZM23.8665 24.8667V27.1333H26.1332V24.8667H23.8665ZM26.1332 27.1333V29.4H28.3999V27.1333H26.1332ZM28.3999 27.1333H30.6665V24.8667H28.3999V27.1333ZM30.6665 27.1333V29.4H32.9332V27.1333H30.6665ZM32.9332 27.1333H35.1999V24.8667H32.9332V27.1333ZM35.1999 27.1333V29.4H37.4665V27.1333H35.1999ZM35.1999 29.4H32.9332V31.6667H35.1999V29.4ZM35.1999 31.6667V33.9333H37.4665V31.6667H35.1999ZM35.1999 33.9333H32.9332V36.2H35.1999V33.9333ZM32.9332 36.2H30.6665V38.4667H32.9332V36.2ZM30.6665 36.2V33.9333H28.3999V36.2H30.6665ZM28.3999 36.2H26.1332V38.4667H28.3999V36.2ZM26.1332 36.2V33.9333H23.8665V36.2H26.1332ZM26.1332 33.9333H28.3999V31.6667H26.1332V33.9333ZM26.1332 31.6667V29.4H23.8665V31.6667H26.1332ZM28.3999 31.6667H30.6665V29.4H28.3999V31.6667ZM30.6665 31.6667V33.9333H32.9332V31.6667H30.6665ZM14.7999 29.4C13.5475 29.4 12.5332 30.4143 12.5332 31.6667V36.2C12.5332 37.4523 13.5475 38.4667 14.7999 38.4667H19.3332C20.5855 38.4667 21.5999 37.4523 21.5999 36.2V31.6667C21.5999 30.4143 20.5855 29.4 19.3332 29.4H14.7999ZM14.7999 31.6667H19.3332V36.2H14.7999V31.6667ZM15.9332 32.8V35.0667H18.1999V32.8H15.9332Z" fill="white"/>
</svg>