<svg version="1.1" id="Calque_1" xmlns="http://www.w3.org/2000/svg" x="0" y="0" viewBox="0 0 4000 272.5" style="enable-background:new 0 0 4000 272.5" xml:space="preserve">
    <style>
        .st1{fill:none}.st2{enable-background:new}.st3{fill:#fff}.st4,.st5,.st6{fill:none;stroke:#fff;stroke-width:4;stroke-linecap:round;stroke-miterlimit:10}.st5,.st6{stroke-width:5}.st6{stroke-linejoin:round}
    </style>
    <g id="Calque_2_00000027585761962844078190000016724086141280921510_">
        <path class="st1" d="M-20 94.7h523.5v144.7H-20z"/>
        <g class="st2">
            <path class="st3" d="M116.4 147.5v6.6h9.9v3.3H123v3.3h-13.2v-3.3h-3.3v-19.8h3.3V131h3.3v-3.3h3.3v-3.3h3.3v-3.3h3.3v-3.3h6.6v-3.3h9.9v3.3h13.2v6.6h-3.3v6.6h-3.3v9.9h-3.3v6.6h-3.3v6.6h6.6v3.3h-3.3v3.3h-9.9v-3.3h-3.3v-3.3h-3.3v-3.3h3.3v-3.3h3.3v-3.3h3.3v-6.6h3.3v-9.9h3.3v-6.6h-6.6v-3.3h-3.3v3.3h-6.6v3.3H123v3.3h-3.3v6.6h-3.3v9.9h-3.3v3.3h3.3zm13.2 3.3v3.3h3.3v-3.3h3.3v-3.3h-3.3v3.3h-3.3zM172.5 160.7h-6.6v-36.3h-3.3v-6.6h3.3v-3.3h6.6v39.6h3.3v3.3h-3.3v3.3zm16.5-36.3v-6.6h3.3v-3.3h3.3v3.3h3.3V131h-3.3v6.6h-3.3v3.3H189v6.6h-3.3v3.3h-3.3v3.3h-6.6v-3.3h3.3v-3.3h3.3v-3.3h3.3v-3.3h3.3v-6.6h3.3v-6.6h3.3v-3.3H189zM212.1 147.5v6.6h9.9v3.3h-3.3v3.3h-13.2v-3.3h-3.3v-19.8h3.3V131h3.3v-3.3h3.3v-3.3h3.3v-3.3h3.3v-3.3h6.6v-3.3h9.9v3.3h13.2v6.6h-3.3v6.6h-3.3v9.9h-3.3v6.6h-3.3v6.6h6.6v3.3h-3.3v3.3h-9.9v-3.3h-3.3v-3.3H222v-3.3h3.3v-3.3h3.3v-3.3h3.3v-6.6h3.3v-9.9h3.3v-6.6h-6.6v-3.3h-3.3v3.3H222v3.3h-3.3v3.3h-3.3v6.6h-3.3v9.9h-3.3v3.3h3.3zm13.2 3.3v3.3h3.3v-3.3h3.3v-3.3h-3.3v3.3h-3.3zM268.1 160.7h-9.9v-3.3h-3.3v-6.6h3.3v-9.9h3.3V131h3.3v-6.6h3.3v-3.3h-6.6v-3.3h3.3v-3.3h6.6v-3.3h3.3v-3.3h3.3v-3.3h3.3v6.6H278v6.6h9.9v3.3h-13.2v6.6h-3.3v9.9h-3.3v9.9h-3.3v6.6h9.9v3.3h-6.6v3.3zM297.8 147.5v6.6h9.9v3.3h-3.3v3.3h-13.2v-3.3h-3.3v-19.8h3.3V131h3.3v-3.3h3.3v-3.3h3.3v-3.3h3.3v-3.3h6.6v-3.3h9.9v3.3h13.2v6.6h-3.3v6.6h-3.3v9.9h-3.3v6.6h-3.3v6.6h6.6v3.3h-3.3v3.3h-9.9v-3.3H311v-3.3h-3.3v-3.3h3.3v-3.3h3.3v-3.3h3.3v-6.6h3.3v-9.9h3.3v-6.6h-6.6v-3.3h-3.3v3.3h-6.6v3.3h-3.3v3.3h-3.3v6.6h-3.3v9.9h-3.3v3.3h3.3zm13.2 3.3v3.3h3.3v-3.3h3.3v-3.3h-3.3v3.3H311zM363.8 117.8h-3.3v6.6h-3.3v3.3h-3.3v3.3h3.3v3.3h-3.3v9.9h-3.3v6.6h-3.3v9.9h-9.9v-3.3h3.3v-9.9h3.3v-6.6h3.3V131h3.3v-9.9h-3.3v-3.3h9.9v-3.3h6.6v3.3zm-6.6 13.2v-3.3h3.3v-3.3h3.3v-3.3h3.3v-3.3h6.6v-3.3h3.3v3.3h3.3v9.9h-9.9v-6.6h-3.3v3.3h-3.3v3.3h-3.3v3.3h-3.3z"/>
        </g>
        <path class="st4" d="M489.3 139.8H785"/>
        <path class="st1" d="M678.1 107.3h523.5V252H678.1z"/>
        <g class="st2">
            <path class="st3" d="M850.8 163.3v3.3h19.8v-3.3h6.6v-6.6h3.3v6.6h-3.3v6.6h-3.3v3.3h-36.3v-3.3h3.3v-3.3h3.3v-3.3h3.3V160h3.3v-3.3h3.3v-3.3h3.3v-3.3h3.3v-3.3h3.3v-3.3h6.6v-3.3h3.3V137h3.3v-6.6h3.3v-3.3h3.3v-13.2h-3.3v-3.3h-13.2v3.3H864v3.3h-3.3v3.3h3.3v3.3h-3.3v3.3h-3.3v-3.3h-3.3v-6.6h3.3v-3.3h3.3v-3.3h3.3v-3.3h23v3.3h3.3v3.3h3.3v9.9h-3.3v6.6H887v3.3h-3.3v3.3h-3.3v3.3h-3.3v3.3h-3.3v3.3h-3.3v3.3h-3.3v3.3h-6.6v3.3h-3.3v3.3H854v3.3h-3.2zm-3.3 6.6v-3.3h-3.3v3.3h3.3zM920 173.2h-16.5v-3.3h-3.3v-3.3h-3.3V160h-3.3v-16.5h3.3v-9.9h3.3V127h3.3v-6.6h3.3v-3.3h3.3v-3.3h3.3v-3.3h3.3v-3.3h19.8v3.3h3.3v3.3h3.3v29.7h-3.3v6.6h-3.3v6.6h-3.3v3.3h-3.3v6.6h-3.3v3.3H920v3.3zm-3.3-3.3v-3.3h3.3v-3.3h3.3v-6.6h3.3v-3.3h3.3v-9.9h3.3v-9.9h3.3v-16.5h-3.3v-6.6h-9.9v3.3H920v3.3h-3.3v3.3h-3.3v3.3h-3.3v9.9h-3.3v6.6h-3.3v26.4h3.3v3.3h9.9zM949.7 163.3v3.3h19.8v-3.3h6.6v-6.6h3.3v6.6h-3.3v6.6h-3.3v3.3h-36.3v-3.3h3.3v-3.3h3.3v-3.3h3.3V160h3.3v-3.3h3.3v-3.3h3.3v-3.3h3.3v-3.3h3.3v-3.3h6.6v-3.3h3.3V137h3.3v-6.6h3.3v-3.3h3.3v-13.2h-3.3v-3.3h-13.2v3.3h-3.3v3.3h-3.3v3.3h3.3v3.3h-3.3v3.3h-3.3v-3.3H953v-6.6h3.3v-3.3h3.3v-3.3h3.3v-3.3H986v3.3h3.3v3.3h3.3v9.9h-3.3v6.6H986v3.3h-3.3v3.3h-3.3v3.3h-3.3v3.3h-3.3v3.3h-3.3v3.3h-3.3v3.3h-6.6v3.3h-3.3v3.3H953v3.3h-3.3zm-3.3 6.6v-3.3h-3.3v3.3h3.3zM1015.6 173.2h-23.1v-3.3h-3.3v-3.3H986V160h3.3v-6.6h6.6v6.6h-3.3v3.3h3.3v6.6h13.2v-3.3h6.6v-3.3h3.3v-6.6h3.3v-9.9h-3.3v-3.3h-3.3v-3.3h-9.9V137h3.3v-3.3h3.3v-3.3h3.3v-3.3h3.3v-3.3h6.6v-3.3h3.3v-3.3h3.3v-3.3h3.3v-3.3h-3.3v3.3H1009v3.3h-3.3v3.3h-3.3v-3.3h3.3v-6.6h3.3v-3.3h33v6.6h-3.3v3.3h-6.6v3.3h-3.3v3.3h-3.3v3.3h-3.3v3.3h-3.3v3.3h3.3v3.3h3.3v3.3h3.3v19.8h-3.3v6.6h-3.3v3.3h-6.6v3.2z"/>
        </g>
        <path class="st5" d="m1234.3 84.4-86.9 86.9"/>
        <path class="st6" d="m1234.3 150.4.3-66h-66.3"/>
        <path class="st1" d="M1329.8 76.9h305.8v113.8h-305.8z"/>
        <g class="st2">
            <path class="st3" d="M1341.5 106.3h-1.5v-1.5h1.5v-1.5h1.5v-5.9h-4.4v1.5h-2.9v5.9h1.5v1.5h2.9v1.5h-7.3v-1.5h-1.5v-5.9h1.5v-1.5h1.5v-1.5h4.4V96h4.4v-4.4h-1.5v-1.5h-1.5v-1.5h-2.9v1.5h-2.9v1.5h1.5v2.9h-2.9V93h-1.5v-1.5h1.5V90h1.5v-1.5h2.9V87h4.4v1.5h4.4V90h1.5v16.1h1.5v1.5h-5.9v-2.9h-1.5v1.6zm7.3 0v-1.5h1.5v1.5h-1.5zM1357.6 104.8h4.4v1.5h-1.5v1.5h-5.9v-1.5h-1.5V90.1h-2.9v-1.5h1.5v-1.5h1.5v-1.5h1.5v-1.5h1.5v-1.5h1.5v5.9h5.9V90h-5.9v14.8zm4.4 0v-1.5h1.5v1.5h-1.5zM1367.9 96v1.5h1.5v4.4h1.5v1.5h1.5v1.5h7.3v1.5h-1.5v1.5h-8.8v-1.5h-1.5v-1.5h-1.5V102h-1.5v-7.3h1.5v-2.9h1.5v-1.5h1.5v-1.5h2.9v-1.5h4.4v1.5h2.9v1.5h1.5v2.9h1.5V96h-14.7zm5.9-5.9h-2.9v1.5h-1.5v2.9h8.8v-2.9h-1.5v-1.5h-1.5v-1.5h-1.5v1.5zm5.8 14.7v-1.5h1.5v1.5h-1.5zM1386.9 81.3v-1.5h-2.9v-1.5h7.3v-1.5h1.5v29.3h2.9v1.5H1384v-1.5h2.9v-1.5h1.5V81.3h-1.5zM1407.5 107.7h-11.7v-1.5h2.9v-1.5h1.5V91.6h-1.5v-1.5h-1.5v-1.5h5.9v-1.5h1.5v19.1h2.9v1.5zm-7.4-29.3h4.4v4.4h-4.4v-4.4zM1411.9 96v1.5h1.5v4.4h1.5v1.5h1.5v1.5h7.3v1.5h-1.5v1.5h-8.8v-1.5h-1.5v-1.5h-1.5V102h-1.5v-7.3h1.5v-2.9h1.5v-1.5h1.5v-1.5h2.9v-1.5h4.4v1.5h2.9v1.5h1.5v2.9h1.5V96h-14.7zm5.8-5.9h-2.9v1.5h-1.5v2.9h8.8v-2.9h-1.5v-1.5h-1.5v-1.5h-1.5v1.5zm5.9 14.7v-1.5h1.5v1.5h-1.5zM1438.2 93.1h-1.5v-1.5h-1.5v1.5h1.5v13.2h2.9v1.5h-10.3v-1.5h2.9V91.6h-1.5v-1.5h-1.5v-1.5h5.9v-1.5h1.5V90h1.5v-1.5h2.9V87h2.9v1.5h1.5v4.4h-4.4V90h-2.9v3.1z"/>
        </g>
        <g class="st2">
            <path class="st3" d="M1345.9 144.6h-1.5v-1.5h2.9v-1.5h-1.5v-11.7h-2.9v-1.5h-2.9v1.5h-2.9v2.9h-1.5v8.8h1.5v2.9h7.3v1.5h-1.5v1.5h-7.3V146h-2.9v-2.9h-1.5v-10.3h1.5v-1.5h1.5v-1.5h1.5v-1.5h2.9V127h5.9v1.5h1.5v-8.8h-4.4v-1.5h7.3v-1.5h1.5V146h2.9v1.5h-7.3v-2.9zM1357.6 135.8v1.5h1.5v4.4h1.5v1.5h1.5v1.5h7.3v1.5h-1.5v1.5h-8.8V146h-1.5v-1.5h-1.5v-2.9h-1.5v-7.3h1.5v-2.9h1.5v-1.5h1.5v-1.5h2.9V127h4.4v1.5h2.9v1.5h1.5v2.9h1.5v2.9h-14.7zm5.9-5.9h-2.9v1.5h-1.5v2.9h8.8v-2.9h-1.5v-1.5h-1.5v-1.5h-1.5v1.5zm5.9 14.7v-1.5h1.5v1.5h-1.5zM1395.7 116.7v1.5h-1.5v1.5h-1.5v1.5h-1.5v7.3h5.9v1.5h-5.9v16h2.9v1.5H1384V146h2.9v-16.1h-2.9v-1.5h2.9v-2.9h1.5v-4.4h1.5v-1.5h1.5v-1.5h2.9v-1.5h1.4zm1.5 1.5h2.9v1.5h1.5v1.5h-1.5v1.5h-2.9v-4.5zM1407.5 146h-1.5v-1.5h1.5V143h1.5v-5.9h-4.4v1.5h-2.9v5.9h1.5v1.5h2.9v1.5h-7.3V146h-1.5v-5.9h1.5v-1.5h1.5v-1.5h4.4v-1.5h4.4v-4.4h-1.5v-1.5h-1.5v-1.5h-2.9v1.5h-2.9v1.5h1.5v2.9h-2.9v-1.5h-1.5v-1.5h1.5v-1.5h1.5v-1.5h2.9V127h4.4v1.5h4.4v1.5h1.5v16h1.5v1.5h-5.9v-2.9h-1.5v1.4zm7.3 0v-1.5h1.5v1.5h-1.5zM1422.1 147.5h-2.9v-27.8h-1.5v-1.5h4.4v-1.5h1.5v13.2h1.5v-1.5h2.9V127h4.4v1.5h2.9v1.5h1.5v2.9h1.5v8.8h-1.5v2.9h-1.5v1.5h-2.9v1.5h-8.8V146h-1.5v1.5zm8.8-1.5v-1.5h1.5V143h1.5v-8.8h-1.5v-2.9h-1.5v-1.5h-4.4v1.5h-2.9V146h7.3zM1450 132.8h-1.5v-1.5h-1.5v1.5h1.5V146h2.9v1.5h-10.3V146h2.9v-14.7h-1.5v-1.5h-1.5v-1.5h5.9V127h1.5v2.9h1.5v-1.5h2.9V127h2.9v1.5h1.5v4.4h-4.4V130h-2.9v2.8zM1469 147.5h-11.7V146h2.9v-1.5h1.5v-13.2h-1.5v-1.5h-1.5v-1.5h5.9V127h1.5v19h2.9v1.5zm-7.3-29.3h4.4v4.4h-4.4v-4.4zM1483.7 147.5h-8.8V146h-1.5v-1.5h-1.5v-2.9h-1.5v-7.3h1.5v-2.9h1.5v-1.5h1.5v-1.5h2.9V127h4.4v1.5h2.9v1.5h1.5v4.4h-2.9v-1.5h-1.5v-1.5h1.5v-1.5h-2.9v-1.5h-1.5v1.5h-2.9v1.5h-1.5v10.3h1.5v1.5h1.5v1.5h7.3v1.5h-1.5v1.3zm1.4-2.9v-1.5h1.5v1.5h-1.5zM1499.8 146h-1.5v-1.5h1.5V143h1.5v-5.9h-4.4v1.5h-2.9v5.9h1.5v1.5h2.9v1.5h-7.3V146h-1.5v-5.9h1.5v-1.5h1.5v-1.5h4.4v-1.5h4.4v-4.4h-1.5v-1.5h-1.5v-1.5h-2.9v1.5h-2.9v1.5h1.5v2.9h-2.9v-1.5h-1.5v-1.5h1.5v-1.5h1.5v-1.5h2.9V127h4.4v1.5h4.4v1.5h1.5v16h1.5v1.5h-5.9v-2.9h-1.5v1.4zm7.3 0v-1.5h1.5v1.5h-1.5zM1515.9 144.6h4.4v1.5h-1.5v1.5h-5.9V146h-1.5v-16.1h-2.9v-1.5h1.5V127h1.5v-1.5h1.5V124h1.5v-1.5h1.5v5.9h5.9v1.5h-5.9v14.7zm4.4 0v-1.5h1.5v1.5h-1.5zM1533.5 147.5h-11.7V146h2.9v-1.5h1.5v-13.2h-1.5v-1.5h-1.5v-1.5h5.9V127h1.5v19h2.9v1.5zm-7.3-29.3h4.4v4.4h-4.4v-4.4zM1549.6 147.5h-10.3V146h-1.5v-1.5h-1.5v-2.9h-1.5v-7.3h1.5v-2.9h1.5v-1.5h1.5v-1.5h2.9V127h4.4v1.5h2.9v1.5h1.5v1.5h1.5v1.5h1.5v8.8h-1.5v2.9h-1.5v1.5h-1.5v1.3zm-5.8-17.6h-2.9v1.5h-1.5v10.3h1.5v2.9h1.5v1.5h4.4v-1.5h1.5v-1.5h1.5v-10.3h-1.5v-2.9h-2.9v-1.5h-1.5v1.5zM1564.3 129.9h1.5v-1.5h2.9V127h4.4v1.5h1.5v1.5h1.5v16h2.9v1.5h-10.3V146h2.9v-16.1h-5.9v1.5h-1.5v-1.5h-1.5v1.5h1.5V146h2.9v1.5H1557V146h2.9v-16.1h-2.9v-1.5h5.9V127h1.5v2.9z"/>
        </g>
        <g class="st2">
            <path class="st3" d="M1338.6 169.7h1.5v-1.5h2.9v-1.5h4.4v1.5h1.5v1.5h1.5v16.1h2.9v1.5H1343v-1.5h2.9v-16.1h-5.9v1.5h-1.5v-1.5h-1.5v1.5h1.5v14.7h2.9v1.5h-10.3v-1.5h2.9v-16.1h-2.9v-1.5h5.9v-1.5h1.5v2.9zM1363.5 184.4h8.8v-1.5h-1.5v-13.2h-2.9v-1.5h5.9v-1.5h1.5v19.1h2.9v1.5h-7.3v-1.5h-2.9v1.5h-7.3v-1.5h-1.5v-14.7h-1.5v-1.5h-1.5v-1.5h5.9v-1.5h1.5v17.8zM1381.1 185.8h2.9v-14.7h-1.5v-1.5h-1.5v-1.5h5.9v-1.5h1.5v2.9h-1.5v1.5h1.5v14.7h2.9v1.5H1381v-1.4zm8.8-14.6h-1.5v-1.5h1.5v-1.5h2.9v-1.5h2.9v1.5h2.9v2.9h1.5v14.7h2.9v1.5h-10.3v-1.5h2.9v-14.7h-1.5v-1.5h-4.4v1.6zm13.2 0h-2.9v-1.5h1.5v-1.5h2.9v-1.5h4.4v1.5h2.9v1.5h1.5v16.1h2.9v1.5H1406v-1.5h1.5v-1.5h1.5v-11.7h-1.5v-2.9h-4.4v1.5zM1420.7 175.6v1.5h1.5v4.4h1.5v1.5h1.5v1.5h7.3v1.5h-1.5v1.5h-8.8V186h-1.5v-1.5h-1.5v-2.9h-1.5v-7.3h1.5v-2.9h1.5v-1.5h1.5v-1.5h2.9v-1.5h4.4v1.5h2.9v1.5h1.5v2.9h1.5v2.9h-14.7zm5.8-5.9h-2.9v1.5h-1.5v2.9h8.8v-2.9h-1.5v-1.5h-1.5v-1.5h-1.5v1.5zm-2.9-5.9h1.5v-1.5h2.9v-1.5h2.9V158h-1.5v-1.5h-1.5v1.5h-1.5v1.5h-1.5v1.5h-1.5v2.8zm8.8 20.6v-1.5h1.5v1.5h-1.5zM1447 172.6h-1.5v-1.5h-1.5v1.5h1.5v13.2h2.9v1.5h-10.3v-1.5h2.9v-14.7h-1.5v-1.5h-1.5v-1.5h5.9v-1.5h1.5v2.9h1.5V168h2.9v-1.5h2.9v1.5h1.5v4.4h-4.4v-2.9h-2.9v3.1zM1466.1 187.3h-11.7v-1.5h2.9v-1.5h1.5v-13.2h-1.5v-1.5h-1.5v-1.5h5.9v-1.5h1.5v19.1h2.9v1.6zm-7.3-29.3h4.4v4.4h-4.4V158zM1489.5 197.5h-10.3V196h1.5v-1.5h1.5v-10.3h-1.5v-1.5h1.5v-13.2h-2.9V168h-2.9v1.5h-1.5v1.5h-1.5v1.5h-1.5v8.8h1.5v2.9h7.3v1.5h-1.5v1.5h-7.3v-1.5h-1.5v-1.5h-1.5v-1.5h-1.5v-8.8h1.5V171h1.5v-1.5h1.5V168h2.9v-1.5h5.9v1.5h4.4v-1.5h1.5v29.3h2.9v1.7zm-7.3-13.1h1.5v-1.5h-1.5v1.5zM1496.9 184.4h8.8v-1.5h-1.5v-13.2h-2.9v-1.5h5.9v-1.5h1.5v19.1h2.9v1.5h-7.3v-1.5h-2.9v1.5h-7.3v-1.5h-1.5v-14.7h-1.5v-1.5h-1.5v-1.5h5.9v-1.5h1.5v17.8zM1517.4 175.6v1.5h1.5v4.4h1.5v1.5h1.5v1.5h7.3v1.5h-1.5v1.5h-8.8V186h-1.5v-1.5h-1.5v-2.9h-1.5v-7.3h1.5v-2.9h1.5v-1.5h1.5v-1.5h2.9v-1.5h4.4v1.5h2.9v1.5h1.5v2.9h1.5v2.9h-14.7zm5.9-5.9h-2.9v1.5h-1.5v2.9h8.8v-2.9h-1.5v-1.5h-1.5v-1.5h-1.5v1.5zm5.8 14.7v-1.5h1.5v1.5h-1.5z"/>
        </g>
        <path class="st1" d="M1709.8 95.6h523.5v144.7h-523.5z"/>
        <text transform="translate(1828.104 161.532)" class="st3" style="font-size:94.2234px;font-family:'Redaction35-Italic'">shaped</text>
        <path class="st1" d="M2198.3 95.6h622.4v144.7h-622.4z"/>
        <g class="st2">
            <path class="st3" d="M2326.5 161.5h-9.9v-3.3h-3.3v-6.6h3.3v-9.9h3.3v-9.9h3.3v-6.6h3.3V122h-6.6v-3.3h3.3v-3.3h6.6v-3.3h3.3v-3.3h3.3v-3.3h3.3v6.6h-3.3v6.6h9.9v3.3h-13.2v6.6h-3.3v9.9h-3.3v9.9h-3.3v6.6h9.9v3.3h-6.6v3.2zM2372.6 161.5h-19.8v-3.3h-3.3v-3.3h-3.3v-23.1h3.3v-3.3h3.3v-3.3h3.3V122h3.3v-3.3h6.6v-3.3h9.9v3.3h6.6v3.3h3.3v23h-3.3v6.6h-3.3v3.3h-3.3v3.3h-3.3v3.3zm-6.5-3.3v-3.3h3.3v-3.3h3.3v-3.3h3.3v-9.9h3.3v-13.2h-3.3V122h-3.3v-3.3h-3.3v3.3h-6.6v3.3h-3.3v6.6h-3.3v9.9h-3.3V155h3.3v3.3h9.9zM2448.5 135.1h-9.9v-3.3h3.3v-3.3h3.3V122h-3.3v-3.3h-6.6v3.3h-3.3v3.3h-3.3v6.6h-3.3v3.3h13.2v3.3h-16.5v3.3h3.3v9.9h3.3v3.3h13.2v3.3h-3.3v3.3h-16.5v-3.3h-3.3V155h-3.3v-19.8h3.3v-6.6h3.3v-3.3h3.3V122h3.3v-3.3h6.6v-3.3h9.9v3.3h6.6v13.2h-3.3v3.2zm-6.6 19.8v-3.3h3.3v3.3h-3.3z"/>
            <path class="st3" d="M2455.1 161.5h-9.9v-6.6h3.3v-3.3h3.3v3.3h6.6v3.3h-3.3v3.3zm6.6-6.6h-3.3v-3.3h3.3v-3.3h3.3v-6.6h3.3v-3.3h-3.3v-9.9h-3.3V122h-3.3v-3.3h3.3v-3.3h6.6v3.3h3.3v13.2h3.3v9.9h3.3v6.6h3.3v6.6h9.9v3.3h-3.3v3.3h-13.2v-3.3h-3.3v-9.9h-6.6v3.3h-3.3v3.2zm6.6-13.2v3.3h3.3v-3.3h-3.3zm6.6-9.8v-3.3h3.3v-3.3h3.3v-6.6h6.6v-3.3h6.6v9.9h-6.6V122h-3.3v3.3h-3.3v3.3h-3.3v3.3h-3.3z"/>
            <path class="st3" d="M2521 158.2v-3.3h6.6v-3.3h3.3V145h3.3v-9.9h3.3v-9.9h-3.3V122h-6.6v3.3h-6.6v3.3h-3.3v-3.3h3.3V122h3.3v-3.3h6.6v-3.3h6.6v3.3h3.3v3.3h3.3v19.8h-3.3v6.6h-3.3v3.3h-3.3v3.3h-3.3v3.3h-3.3v3.3h-19.8v-3.3h-3.3v6.6h-3.3v6.6h-3.3v9.9h6.6v3.3h-23.1v-3.3h3.3V178h3.3v-3.3h3.3v-6.6h3.3v-9.9h3.3v-6.6h3.3v-9.9h3.3v-9.9h3.3V122h-3.3v-3.3h9.9v-3.3h6.6v6.6h-3.3v3.3h-3.3v3.3h3.3v3.3h-6.6v3.3h3.3v3.3h-3.3v6.6h-3.3v9.9h3.3v3.3h9.9zM2560.6 148.3v6.6h9.9v3.3h-3.3v3.3H2554v-3.3h-3.3v-19.8h3.3v-6.6h3.3v-3.3h3.3v-3.3h3.3V122h3.3v-3.3h6.6v-3.3h9.9v3.3h13.2v6.6h-3.3v6.6h-3.3v9.9h-3.3v6.6h-3.3v6.6h6.6v3.3h-3.3v3.3h-9.9v-3.3h-3.3V155h-3.3v-3.3h3.3v-3.3h3.3V145h3.3v-6.6h3.3v-9.9h3.3V122h-6.6v-3.3h-3.3v3.3h-6.6v3.3h-3.3v3.3h-3.3v6.6h-3.3v9.9h-3.3v3.3h3.3zm13.2 3.3v3.3h3.3v-3.3h3.3v-3.3h-3.3v3.3h-3.3zM2620 138.4h-3.3v6.6h-3.3v9.9h-3.3v6.6h-9.9v-3.3h3.3v-6.6h3.3v-9.9h3.3v-9.9h3.3V122h-3.3v-3.3h9.9v-3.3h6.6v6.6h-3.3v3.3h3.3v3.3h-3.3v3.3h-6.6v3.3h3.3v3.2zm16.5 13.2v3.3h9.9v3.3h-6.6v3.3h-9.9v-13.2h3.3v-9.9h3.3v-6.6h3.3V122h-6.6v3.3h-6.6V122h3.3v-3.3h6.6v-3.3h6.6v3.3h6.6v9.9h-3.3v6.6h-3.3v9.9h-3.3v6.6h-3.3zM2702.4 98.9h-3.3v-3.3h13.2v6.6h-3.3v6.6h-3.3v9.9h-3.3v6.6h-3.3v9.9h-3.3v9.9h-3.3v6.6h-3.3v3.3h9.9v3.3h-6.6v3.3h-9.9V155h-3.3v3.3h-6.6v3.3h-13.2v-3.3h-3.3v-23.1h3.3v-6.6h3.3v-3.3h3.3V122h3.3v-3.3h9.9v-3.3h9.9v3.3h6.6v-3.3h3.3v-9.9h3.3v-6.6zm-26.4 56v-3.3h3.3v-3.3h3.3V145h3.3v-6.6h3.3v-6.6h3.3V122h-6.6v-3.3h-3.3v3.3h-6.6v3.3h-3.3v3.3h-3.3v6.6h-3.3v6.6h-3.3v9.9h3.3v3.3h9.9zm6.6-6.6v3.3h3.3v-3.3h-3.3z"/>
        </g>
        <path class="st1" d="M2788.1 95.9h622.4v144.7h-622.4z"/>
        <g class="st2">
            <path class="st3" d="M2932.7 161.8h-16.5v-3.3h-3.3v-3.3h-3.3v-16.5h3.3v-9.9h3.3v-3.3h3.3v-3.3h3.3V119h6.6v-3.3h9.9v3.3h6.6v13.2h-6.6v-9.9h-13.2v3.3h-3.3v6.6h-3.3V152h3.3v3.3h13.2v3.3h-3.3v3.2zm3.3-6.6v-3.3h3.3v3.3h-3.3zM2972.3 119h-3.3v6.6h-3.3v3.3h-3.3v3.3h3.3v3.3h-3.3v9.9h-3.3v6.6h-3.3v9.9h-9.9v-3.3h3.3v-9.9h3.3V142h3.3v-9.9h3.3v-9.9h-3.3V119h9.9v-3.3h6.6v3.3zm-6.6 13.1v-3.3h3.3v-3.3h3.3v-3.3h3.3V119h6.6v-3.3h3.3v3.3h3.3v9.9h-9.9v-6.6h-3.3v3.3h-3.3v3.3h-3.3v3.3h-3.3zM3021.7 135.4h-9.9v-3.3h3.3v-3.3h3.3v-6.6h-3.3V119h-6.6v3.3h-3.3v3.3h-3.3v6.6h-3.3v3.3h13.2v3.3h-16.5v3.3h3.3v9.9h3.3v3.3h13.2v3.3h-3.3v3.3h-16.5v-3.3h-3.3v-3.3h-3.3v-19.8h3.3v-6.6h3.3v-3.3h3.3v-3.3h3.3V119h6.6v-3.3h9.9v3.3h6.6v13.2h-3.3v3.2zm-6.6 19.8v-3.3h3.3v3.3h-3.3zM3038.2 148.6v6.6h9.9v3.3h-3.3v3.3h-13.2v-3.3h-3.3v-19.8h3.3v-6.6h3.3v-3.3h3.3v-3.3h3.3v-3.3h3.3V119h6.6v-3.3h9.9v3.3h13.2v6.6h-3.3v6.6h-3.3v9.9h-3.3v6.6h-3.3v6.6h6.6v3.3h-3.3v3.3h-9.9v-3.3h-3.3v-3.3h-3.3V152h3.3v-3.3h3.3v-3.3h3.3v-6.6h3.3v-9.9h3.3v-6.6h-6.6V119h-3.3v3.3h-6.6v3.3h-3.3v3.3h-3.3v6.6h-3.3v9.9h-3.3v3.3h3.3zm13.2 3.3v3.3h3.3v-3.3h3.3v-3.3h-3.3v3.3h-3.3zM3094.3 161.8h-9.9v-3.3h-3.3v-6.6h3.3V142h3.3v-9.9h3.3v-6.6h3.3v-3.3h-6.6V119h3.3v-3.3h6.6v-3.3h3.3v-3.3h3.3v-3.3h3.3v6.6h-3.3v6.6h9.9v3.3h-13.2v6.6h-3.3v9.9h-3.3v9.9h-3.3v6.6h9.9v3.3h-6.6v3.2zM3137.2 119h-3.3v6.6h-3.3v9.9h-3.3v6.6h-3.3v9.9h-3.3v3.3h6.6v3.3h-3.3v3.3h-9.9v-13.2h3.3v-9.9h3.3v-6.6h3.3v-9.9h-3.3V119h9.9v-3.3h6.6v3.3zm-6.6-16.5h3.3v-3.3h3.3v-3.3h6.6v6.6h-3.3v3.3h-9.9v-3.3zM3153.6 161.8h-6.6v-36.3h-3.3V119h3.3v-3.3h6.6v39.6h3.3v3.3h-3.3v3.2zm16.5-36.3V119h3.3v-3.3h3.3v3.3h3.3v13.2h-3.3v6.6h-3.3v3.3h-3.3v6.6h-3.3v3.3h-3.3v3.3h-6.6V152h3.3v-3.3h3.3v-3.3h3.3V142h3.3v-6.6h3.3v-6.6h3.3v-3.3h-6.6zM3206.4 119h-3.3v6.6h-3.3v9.9h-3.3v6.6h-3.3v9.9h-3.3v3.3h6.6v3.3h-3.3v3.3h-9.9v-13.2h3.3v-9.9h3.3v-6.6h3.3v-9.9h-3.3V119h9.9v-3.3h6.6v3.3zm-6.6-16.5h3.3v-3.3h3.3v-3.3h6.6v6.6h-3.3v3.3h-9.9v-3.3zM3222.9 161.8h-9.9v-3.3h-3.3v-6.6h3.3V142h3.3v-9.9h3.3v-6.6h3.3v-3.3h-6.6V119h3.3v-3.3h6.6v-3.3h3.3v-3.3h3.3v-3.3h3.3v6.6h-3.3v6.6h9.9v3.3h-13.2v6.6h-3.3v9.9h-3.3v9.9h-3.3v6.6h9.9v3.3h-6.6v3.2zM3239.4 184.9h-6.6v-3.3h-3.3v-9.9h6.6v3.3h3.3v3.3h6.6v3.3h-6.6v3.3zm6.6-6.6V175h3.3v-3.3h3.3v-3.3h3.3V142h-3.3v-19.8h-6.6V119h9.9v-3.3h3.3v6.6h3.3v26.4h3.3v6.6h3.3V152h3.3v-6.6h3.3v-6.6h3.3v-6.6h3.3v-6.6h-6.6v-3.3h3.3v-6.6h6.6v3.3h3.3v6.6h-3.3v9.9h-3.3v6.6h-3.3v6.6h-3.3v3.3h-3.3v6.6h-3.3v3.3h-3.3v3.3h-3.3v3.3h-3.3v3.3h-3.3v3.3h-3.3v3.3h-6.6z"/>
        </g>
        <path d="M372.3 191.3H101.4c-31.6 0-57.2-25.6-57.2-57.2s25.6-57.2 57.2-57.2h270.9c31.6 0 57.2 25.6 57.2 57.2s-25.6 57.2-57.2 57.2z" style="fill:none;stroke:#fff;stroke-width:4;stroke-miterlimit:10"/>
        <path class="st5" d="m1734.6 171.2-86.9-86.9"/>
        <path class="st6" d="m1668.6 171.2 66 .3v-66.3"/>
        <path class="st1" d="M3675.9 85.4h208.5v103.2h-208.5z"/>
        <g class="st2">
            <path class="st3" d="M3681 120.8h-3.4v-8.4h1.7v1.7h1.7v3.4h1.7v1.7h6.7v-1.7h1.7v-3.4h-1.7v-1.7h-3.4v-1.7h-5.1V109h-1.7v-1.7h-1.7v-5.1h1.7v-3.4h3.4v-1.7h3.4v1.7h3.4v1.7h1.7v-3.4h1.7v8.4h-1.7v-3.4h-1.7v-1.7h-6.7v1.7h-1.7v1.7h1.7v1.7h1.7v1.7h5.1v1.7h3.4v1.7h1.7v1.7h1.7v5.1h-1.7v1.7h-1.7v1.7h-10.1v-1.7h-1.7v-1.7h-1.7v1.7h1.7v1.7zM3714.7 120.8h-11.8v-1.7h-1.7v-1.7h-1.7V114h-1.7v-8.4h1.7v-3.4h1.7v-1.7h1.7v-1.7h3.4v-1.7h5.1v1.7h3.4v1.7h1.7v1.7h1.7v1.7h1.7V114h-1.7v3.4h-1.7v1.7h-1.7v1.7zm-6.8-20.2h-3.4v1.7h-1.7v11.8h1.7v3.4h1.7v1.7h5.1v-1.7h1.7v-1.7h1.7V104h-1.7v-3.4h-3.4v-1.7h-1.7v1.7zM3734.9 120.8h-13.5v-1.7h3.4v-1.7h1.7v-15.2h-1.7v-1.7h-1.7v-1.7h6.7v-1.7h1.7V119h3.4v1.8zm-8.4-33.7h5.1v5.1h-5.1v-5.1zM3745 120.8h-10.1v-1.7h3.4v-1.7h1.7v-1.7h1.7V114h1.7v-1.7h1.7V109h-1.7v-3.4h-1.7V104h-1.7v-1.7h-1.7v-1.7h-1.7v-1.7h8.4v5.1h1.7v1.7h3.4V104h1.7v-1.7h1.7v-1.7h-1.7v-1.7h8.4v1.7h-3.4v1.7h-3.4v3.4h-1.7v1.7h-1.7v1.7h1.7v3.4h1.7v1.7h1.7v3.4h1.7v1.7h3.4v1.7h-11.8v-1.7h3.4v-1.7h-1.7v-1.7h-1.7v-5.1h-1.7v1.7h-1.7v1.7h-1.7v1.7h-1.7v3.4h3.4v1.5z"/>
            <path class="st3" d="M3772 119.1h-1.7v-1.7h1.7v-1.7h1.7V109h-5.1v1.7h-3.4v6.7h1.7v1.7h3.4v1.7h-8.4v-1.7h-1.7v-6.7h1.7v-1.7h1.7V109h5.1v-1.7h5.1v-5.1h-1.7v-1.7h-1.7v-1.7h-3.4v1.7h-3.4v1.7h1.7v3.4h-3.4V104h-1.7v-1.7h1.7v-1.7h1.7v-1.7h3.4v-1.7h5.1v1.7h5.1v1.7h1.7v18.5h1.7v1.7h-6.7v-3.4h-1.7v1.7zm8.4 0v-1.7h1.7v1.7h-1.7zM3792.2 100.6h1.7v-1.7h3.4v-1.7h5.1v1.7h1.7v1.7h1.7v18.5h3.4v1.7h-11.8v-1.7h3.4v-18.5h-6.7v1.7h-1.7v-1.7h-1.7v1.7h1.7v16.9h3.4v1.7H3784v-1.7h3.4v-18.5h-3.4V99h6.7v-1.7h1.7v3.3zM3819.2 117.4h5.1v1.7h-1.7v1.7h-6.7v-1.7h-1.7v-18.5h-3.4v-1.7h1.7v-1.7h1.7v-1.7h1.7v-1.7h1.7v-1.7h1.7v6.7h6.7v1.7h-6.7v16.9zm5 0v-1.7h1.7v1.7h-1.7zM3831 107.3v1.7h1.7v5.1h1.7v1.7h1.7v1.7h8.4v1.7h-1.7v1.7h-10.1v-1.7h-1.7v-1.7h-1.7v-3.4h-1.7v-8.4h1.7v-3.4h1.7v-1.7h1.7v-1.7h3.4v-1.7h5.1v1.7h3.4v1.7h1.7v3.4h1.7v3.4h-17zm6.7-6.7h-3.4v1.7h-1.7v3.4h10.1v-3.4h-1.7v-1.7h-1.7v-1.7h-1.7v1.7zm6.8 16.8v-1.7h1.7v1.7h-1.7z"/>
        </g>
        <g class="st2">
            <path class="st3" d="M3692.8 178.6h-10.1v-1.7h-1.7v-1.7h-1.7v-3.4h-1.7v-8.4h1.7V160h1.7v-1.7h1.7v-1.7h3.4V155h5.1v1.7h3.4v1.7h1.7v5.1h-3.4v-1.7h-1.7v-1.7h1.7v-1.7h-3.4v-1.7h-1.7v1.7h-3.4v1.7h-1.7v11.8h1.7v1.7h1.7v1.7h8.4v1.7h-1.7v1.6zm1.6-3.4v-1.7h1.7v1.7h-1.7zM3711.3 178.6h-13.5v-1.7h3.4v-1.7h1.7V160h-1.7v-1.7h-1.7v-1.7h6.7V155h1.7v21.9h3.4v1.7zm-8.4-33.7h5.1v5.1h-5.1v-5.1zM3723.1 161.7h-1.7V160h-1.7v1.7h1.7v15.2h3.4v1.7H3713v-1.7h3.4V160h-1.7v-1.7h-1.7v-1.7h6.7V155h1.7v3.4h1.7v-1.7h3.4V155h3.4v1.7h1.7v5.1h-5.1v-3.4h-3.4v3.3zM3746.7 178.6h-10.1v-1.7h-1.7v-1.7h-1.7v-3.4h-1.7v-8.4h1.7V160h1.7v-1.7h1.7v-1.7h3.4V155h5.1v1.7h3.4v1.7h1.7v5.1h-3.4v-1.7h-1.7v-1.7h1.7v-1.7h-3.4v-1.7h-1.7v1.7h-3.4v1.7h-1.7v11.8h1.7v1.7h1.7v1.7h8.4v1.7h-1.7v1.6zm1.7-3.4v-1.7h1.7v1.7h-1.7zM3761.9 175.2h10.1v-1.7h-1.7v-15.2h-3.4v-1.7h6.7V155h1.7v21.9h3.4v1.7h-8.4v-1.7h-3.4v1.7h-8.4v-1.7h-1.7V160h-1.7v-1.7h-1.7v-1.7h6.7V155h1.7v20.2zM3793.9 178.6h-13.5v-1.7h3.4v-1.7h1.7V160h-1.7v-1.7h-1.7v-1.7h6.7V155h1.7v21.9h3.4v1.7zm-8.4-33.7h5.1v5.1h-5.1v-5.1zM3802.3 175.2h5.1v1.7h-1.7v1.7h-6.7v-1.7h-1.7v-18.5h-3.4v-1.7h1.7V155h1.7v-1.7h1.7v-1.7h1.7v-1.7h1.7v6.7h6.7v1.7h-6.7v16.9zm5.1 0v-1.7h1.7v1.7h-1.7zM3814.1 178.6h-3.4v-8.4h1.7v1.7h1.7v3.4h1.7v1.7h6.7v-1.7h1.7v-3.4h-1.7v-1.7h-3.4v-1.7h-5.1v-1.7h-1.7v-1.7h-1.7V160h1.7v-3.4h3.4V155h3.4v1.7h3.4v1.7h1.7V155h1.7v8.4h-1.7V160h-1.7v-1.7h-6.7v1.7h-1.7v1.7h1.7v1.7h1.7v1.7h5.1v1.7h3.4v1.7h1.7v1.7h1.7v5.1h-1.7v1.7h-1.7v1.7h-10.1V177h-1.7v-1.7h-1.7v1.7h1.7v1.6z"/>
        </g>
        <path class="st3" d="M3945.1 100.1h-8.7v17.3h-8.6v17.4h8.7v-17.3h8.6v-17.4h8.6V82.8h-8.6v17.3zm-25.9 60.6h-8.7v17.4h-8.6v17.4h8.6v-17.4h8.7v-17.4h8.6v-17.4h-8.6v17.4zM3971.4 82.7h-8.7V100h-8.6v17.3h8.6V100h8.7V82.7h8.6V65.3h-8.6v17.4zm-25.9 60.6h-8.7v17.3h-8.6V178h8.7v-17.4h8.6v-17.3h8.6V126h-8.6v17.3z"/>
        <path class="st4" d="M3353.3 139.8h258.5"/>
        <path class="st3" d="M2188.4 111.2h50.2v50.2h-50.2zM2790.5 111.2h50.2v50.2h-50.2z"/>
    </g>
</svg>
