<svg width="62" height="62" viewBox="0 0 62 62" fill="none" xmlns="http://www.w3.org/2000/svg">
  <g clip-path="url(#clip0_20_334)">
  <path d="M31 62C48.1208 62 62 48.1208 62 31C62 13.8792 48.1208 0 31 0C13.8792 0 0 13.8792 0 31C0 48.1208 13.8792 62 31 62Z" fill="#5c64ec"/>
  <path d="M48.1385 20.3804C47.0695 20.8711 45.8779 21.169 44.7213 21.3618C45.2645 21.2742 46.0706 20.2753 46.4036 19.8722C46.8943 19.2589 47.3148 18.5579 47.5426 17.8044C47.5777 17.7518 47.5952 17.6642 47.5426 17.6292C47.4725 17.5941 47.42 17.6292 47.3674 17.6292C46.0706 18.3301 44.7388 18.8208 43.3194 19.1888C43.1967 19.2238 43.1091 19.1888 43.039 19.1187C42.9163 18.9785 42.8112 18.8558 42.6885 18.7507C42.0927 18.2425 41.4443 17.8395 40.7258 17.5415C39.7795 17.156 38.7456 16.9983 37.7117 17.0509C36.7128 17.121 35.7315 17.4013 34.8552 17.857C33.9615 18.3126 33.1729 18.961 32.5421 19.732C31.8937 20.5382 31.403 21.4844 31.1577 22.4833C30.9123 23.4471 30.9474 24.411 31.0876 25.3923C31.1051 25.55 31.0876 25.5851 30.9474 25.55C25.3748 24.7264 20.7659 22.7287 17.0158 18.4528C16.8581 18.26 16.7705 18.26 16.6303 18.4528C14.983 20.9062 15.7891 24.8666 17.8394 26.7942C18.1198 27.0571 18.4002 27.3199 18.6981 27.5478C18.593 27.5653 17.2261 27.4251 16.0169 26.7942C15.8592 26.6891 15.7716 26.7417 15.7541 26.9344C15.7541 27.1973 15.7541 27.4426 15.8066 27.7405C16.1221 30.2289 17.8394 32.5421 20.2052 33.4358C20.4856 33.5585 20.801 33.6636 21.0989 33.7162C20.5556 33.8389 20.0124 33.9265 18.4703 33.8038C18.2775 33.7688 18.2074 33.8564 18.2775 34.0492C19.4341 37.2035 21.94 38.1498 23.8151 38.693C24.0605 38.7281 24.3233 38.7281 24.5686 38.7982C24.5686 38.8157 24.5336 38.8157 24.5161 38.8508C23.9027 39.7971 21.7298 40.498 20.7309 40.8485C18.9084 41.4794 16.9106 41.7773 14.983 41.5845C14.6676 41.5319 14.615 41.5495 14.5274 41.5845C14.4398 41.6371 14.5274 41.7072 14.615 41.7948C15.0005 42.0577 15.4036 42.2855 15.8066 42.4958C17.0333 43.1441 18.3126 43.6699 19.6444 44.0379C26.5489 45.948 34.3295 44.5461 39.4991 39.394C43.5647 35.346 45.0017 29.7733 45.0017 24.1831C45.0017 23.9729 45.2645 23.8502 45.4047 23.7275C46.4562 22.9389 47.3148 21.9751 48.1034 20.9237C48.2787 20.6783 48.2787 20.4681 48.2787 20.3804V20.3454C48.2787 20.2578 48.2787 20.2753 48.1385 20.3454V20.3804Z" fill="white"/>
  </g>
  <defs>
  <clipPath id="clip0_20_334">
  <rect width="62" height="62" fill="white"/>
  </clipPath>
  </defs>
</svg>