<svg width="150" height="150" viewBox="0 0 150 150" fill="none" xmlns="http://www.w3.org/2000/svg">
<rect width="150" height="150" rx="15" fill="#543BED"/>
<path d="M52.1357 121.667C60.7614 121.955 69.3574 120.512 77.4158 117.422C85.4742 114.332 92.8314 109.658 99.0526 103.676C105.274 97.6939 110.233 90.5256 113.636 82.5945C117.04 74.6635 118.819 66.1306 118.869 57.5002C122.822 52.6085 125.757 46.9759 127.502 40.9335C127.633 40.4562 127.622 39.9513 127.472 39.4797C127.322 39.0082 127.039 38.59 126.657 38.2757C126.275 37.9613 125.81 37.7641 125.318 37.7079C124.826 37.6516 124.329 37.7387 123.886 37.9585C121.818 38.954 119.489 39.2756 117.229 38.8779C114.968 38.4802 112.89 37.3834 111.286 35.7419C109.238 33.4994 106.761 31.6908 104.001 30.4232C101.242 29.1556 98.2557 28.4548 95.2204 28.3623C92.185 28.2699 89.1619 28.7876 86.3303 29.8848C83.4987 30.9821 80.9161 32.6366 78.7357 34.7502C75.7501 37.6416 73.5634 41.2561 72.3879 45.2425C71.2124 49.2289 71.0882 53.4516 72.0273 57.5002C52.4856 58.6669 39.069 49.3919 28.3356 36.6752C28.0132 36.3101 27.5914 36.0467 27.1218 35.9173C26.6521 35.7879 26.1549 35.798 25.691 35.9465C25.227 36.095 24.8163 36.3753 24.509 36.7534C24.2017 37.1314 24.0112 37.5907 23.9606 38.0752C21.9159 49.4177 23.3909 61.1142 28.1876 71.594C32.9843 82.0737 40.8729 90.8346 50.794 96.7002C44.1419 104.329 34.8002 109.094 24.719 110C24.1789 110.09 23.6803 110.346 23.293 110.733C22.9058 111.12 22.6492 111.618 22.5592 112.158C22.4692 112.698 22.5502 113.253 22.7911 113.745C23.0319 114.236 23.4205 114.64 23.9023 114.9C32.6729 119.283 42.3312 121.598 52.1357 121.667Z" fill="white"/>
</svg>
